<?xml version="1.0" standalone="no"?>
<!DOCTYPE svg PUBLIC "-//W3C//DTD SVG 20010904//EN"
 "http://www.w3.org/TR/2001/REC-SVG-20010904/DTD/svg10.dtd">
<svg version="1.0" xmlns="http://www.w3.org/2000/svg"
 width="512.000000pt" height="512.000000pt" viewBox="0 0 512.000000 512.000000"
 preserveAspectRatio="xMidYMid meet">
<metadata>
Created by potrace 1.14, written by Peter Selinger 2001-2017
</metadata>
<g transform="translate(0.000000,512.000000) scale(0.100000,-0.100000)"
fill="#000000" stroke="none">
<path d="M4869 5072 c14 -27 41 -68 59 -92 48 -65 43 -84 -28 -107 -41 -13
-210 -26 -328 -24 -124 1 -329 -33 -392 -66 -14 -7 -30 -13 -36 -13 -17 0
-130 -37 -156 -51 -13 -7 -52 -18 -88 -25 -183 -35 -243 -95 -105 -106 51 -4
95 -24 95 -44 0 -6 18 -19 41 -29 49 -22 63 -19 245 61 83 36 166 46 378 45
213 -1 231 -3 301 -26 22 -8 57 -16 77 -20 28 -4 42 -13 53 -34 8 -16 12 -31
9 -34 -3 -3 -3 -15 1 -26 5 -18 14 -21 66 -21 l59 0 0 205 0 205 -25 0 c-14 0
-25 6 -25 13 0 8 11 19 25 25 24 11 25 15 25 112 l0 100 -139 0 -139 0 27 -48z"/>
<path d="M2530 4912 c0 -4 5 -13 11 -19 17 -17 7 -57 -16 -61 -11 -2 -34 -10
-52 -18 -23 -10 -30 -19 -26 -33 3 -11 11 -22 19 -25 8 -3 14 -13 14 -22 0
-10 5 -14 15 -10 9 3 15 0 15 -10 0 -13 7 -15 34 -10 43 8 55 -6 78 -96 10
-39 30 -91 45 -115 64 -102 90 -161 102 -225 5 -29 8 -55 6 -57 -9 -8 -25 12
-25 33 0 19 -4 21 -34 18 -18 -2 -37 1 -40 7 -4 6 -14 11 -22 11 -9 0 -23 7
-31 16 -13 13 -17 13 -24 2 -5 -7 -9 -8 -9 -3 0 15 -46 13 -61 -2 -10 -10 -16
-9 -31 3 -16 15 -18 15 -29 -12 -6 -16 -18 -43 -26 -61 -10 -21 -13 -44 -8
-71 6 -39 -10 -72 -36 -72 -5 0 -9 -4 -9 -9 0 -5 21 -11 48 -13 38 -3 57 1 97
23 44 24 52 26 64 12 11 -12 15 -13 22 -1 7 11 9 11 9 -1 0 -17 80 -7 95 13 6
7 15 11 21 9 6 -2 17 4 25 14 13 16 12 17 -3 4 -16 -12 -18 -11 -18 8 0 29 18
63 30 56 5 -3 6 -13 3 -23 -3 -11 4 -7 21 10 35 37 54 25 98 -60 58 -114 64
-123 71 -116 3 4 9 0 13 -9 7 -19 -14 -89 -30 -99 -8 -5 -7 -11 3 -20 10 -10
12 -10 7 0 -11 19 9 14 28 -7 10 -11 32 -21 49 -23 28 -3 40 -16 103 -110 68
-101 103 -172 90 -185 -3 -3 8 -25 24 -48 31 -46 48 -95 32 -95 -5 0 -15 6
-21 14 -12 14 -21 13 -82 -10 -9 -3 -22 -17 -28 -31 -10 -22 -8 -28 20 -54
l30 -28 -39 -17 c-33 -15 -41 -24 -51 -62 -12 -45 -1 -79 21 -66 5 3 15 0 23
-6 15 -12 20 -4 16 23 -1 10 7 9 30 -3 10 -6 19 -20 19 -30 0 -11 7 -20 15
-20 8 0 15 9 15 20 0 11 5 20 11 20 6 0 9 -9 6 -20 -5 -19 7 -29 15 -12 2 4
14 14 27 23 23 14 38 69 19 69 -4 0 -8 4 -8 9 0 5 9 7 20 4 11 -3 20 -1 20 3
0 5 12 9 26 9 23 0 25 -3 21 -32 -7 -38 9 -61 45 -67 41 -7 66 -24 83 -56 9
-17 19 -30 24 -30 4 0 8 -14 8 -32 0 -18 5 -34 11 -36 15 -5 16 -23 1 -20 -7
2 -13 -12 -15 -31 -1 -19 -5 -44 -8 -55 -9 -32 -83 -107 -114 -115 -22 -7 -27
-13 -25 -36 3 -36 10 -42 26 -21 7 10 22 17 32 15 13 -3 31 9 53 33 19 21 44
38 60 40 22 2 28 9 30 33 5 42 16 50 51 35 30 -12 81 -84 81 -113 0 -8 16 -38
35 -66 19 -28 35 -56 35 -64 0 -7 8 -29 18 -49 11 -21 16 -43 11 -54 -9 -24
-98 -114 -136 -137 -6 -4 -24 -2 -41 3 -21 5 -34 5 -38 -2 -4 -6 -24 -7 -49
-4 -53 8 -67 -6 -67 -71 0 -26 -5 -54 -11 -60 -6 -9 -6 -17 1 -25 10 -13 12
-19 12 -38 0 -5 6 -10 13 -10 30 0 98 -42 111 -69 9 -16 13 -31 10 -34 -7 -7
16 -80 27 -87 4 -3 14 -23 21 -45 7 -21 18 -40 23 -42 6 -2 28 13 50 32 27 23
46 33 59 29 11 -4 39 -7 62 -9 58 -3 98 -29 90 -58 -3 -12 -6 -25 -6 -29 0 -5
-6 -8 -14 -8 -15 0 -43 -65 -48 -110 -2 -14 -9 -25 -18 -25 -10 0 -14 8 -12
26 4 34 -31 67 -52 50 -8 -7 -19 -10 -25 -7 -14 9 -41 -4 -41 -19 0 -7 7 -16
16 -19 8 -3 13 -2 10 3 -3 5 1 12 10 15 9 4 18 5 18 4 18 -32 23 -57 13 -67
-6 -6 -12 -29 -12 -51 0 -32 4 -40 18 -40 20 0 23 -16 5 -22 -10 -4 -10 -10 0
-32 10 -23 15 -25 33 -15 15 8 24 8 32 0 8 -8 8 -11 -1 -11 -7 0 -12 -6 -12
-14 0 -23 -20 -29 -39 -12 -28 25 -60 20 -67 -11 -7 -28 7 -60 25 -56 6 2 11
-2 11 -8 0 -20 -21 -49 -35 -49 -20 0 -26 -14 -19 -48 7 -33 39 -49 61 -30 7
5 19 8 27 5 13 -5 53 33 100 98 7 11 31 24 51 29 47 14 65 38 47 66 -6 11 -17
29 -24 39 -9 15 -9 25 0 43 6 13 13 43 14 67 3 42 2 44 -25 45 -25 2 -27 -1
-22 -24 5 -26 -5 -51 -21 -52 -22 -1 -34 -12 -30 -27 3 -9 2 -22 -3 -30 -11
-16 -51 2 -51 24 0 20 -22 65 -32 65 -4 0 -8 -7 -8 -15 0 -8 -4 -15 -10 -15
-14 0 -12 16 5 33 8 8 11 18 7 22 -4 5 -1 5 6 1 7 -4 15 -1 18 9 4 9 14 13 23
11 23 -7 53 22 79 76 29 59 39 67 95 73 96 12 107 16 88 39 -7 8 -10 24 -6 35
3 11 0 29 -7 40 -10 17 -19 20 -53 14 -22 -3 -44 -9 -50 -13 -15 -10 -65 -11
-65 -1 0 16 31 42 42 35 27 -17 70 -9 92 17 21 25 24 25 49 12 15 -7 27 -20
27 -27 0 -8 7 -16 14 -19 21 -8 49 -66 43 -88 -3 -12 0 -19 9 -19 18 0 31 -55
39 -164 6 -74 10 -89 25 -93 28 -7 42 -55 45 -151 2 -71 7 -97 26 -133 13 -24
27 -45 30 -47 10 -5 -6 -76 -24 -103 -13 -19 -17 -45 -16 -100 1 -41 6 -77 11
-80 7 -4 6 -13 0 -26 -6 -10 -13 -48 -17 -83 -4 -36 -8 -82 -10 -103 -4 -38
-37 -92 -49 -80 -3 3 -6 0 -6 -8 0 -7 -14 3 -31 24 -32 39 -63 51 -52 19 3 -9
13 -23 22 -31 14 -11 13 -12 -7 -6 -20 6 -23 4 -20 -11 2 -10 14 -24 28 -31
14 -7 19 -13 13 -13 -7 0 -13 -7 -13 -16 0 -8 -8 -15 -17 -14 -25 3 -63 -10
-63 -21 0 -5 -7 -9 -15 -9 -9 0 -29 -7 -45 -15 -29 -15 -36 -11 -31 18 3 18
-27 4 -47 -23 -15 -20 -31 -30 -48 -30 -14 0 -37 -9 -51 -20 -14 -11 -34 -20
-45 -20 -11 0 -28 -5 -39 -11 -16 -8 -23 -6 -37 9 -9 11 -34 22 -55 25 -33 5
-39 3 -52 -22 -21 -41 -61 -63 -122 -67 -30 -1 -60 -8 -67 -14 -16 -12 -75
-11 -134 3 -35 8 -41 13 -36 29 7 23 -12 48 -37 48 -22 0 -22 -1 -10 -34 14
-35 -8 -50 -60 -43 l-41 5 20 -21 c23 -24 24 -36 6 -55 -16 -15 -57 -15 -124
-1 -38 8 -55 8 -63 0 -15 -15 -37 -14 -37 3 0 18 -30 29 -34 13 -2 -6 -7 -20
-10 -29 -3 -9 -18 -24 -35 -32 -25 -13 -35 -14 -58 -4 -28 13 -53 32 -53 42 0
2 7 6 16 8 13 2 12 8 -8 38 -25 37 -55 51 -62 28 -3 -7 -7 -30 -11 -52 l-6
-38 -22 20 c-17 15 -28 18 -44 11 -13 -4 -23 -12 -23 -17 0 -12 -57 -21 -97
-15 -18 3 -33 11 -33 18 0 16 -60 31 -69 18 -9 -13 -59 -12 -64 1 -3 7 8 18
24 25 41 18 39 57 -2 53 -3 -1 -4 11 -1 25 4 22 2 25 -12 20 -10 -4 -29 -10
-42 -13 -13 -3 -24 -10 -24 -15 0 -5 -9 -9 -20 -9 -11 0 -20 6 -20 13 0 6 -9
-3 -20 -21 -18 -30 -19 -35 -5 -49 14 -14 14 -17 -1 -34 -21 -23 -43 -24 -50
-4 -4 10 -21 15 -55 15 -35 0 -51 5 -58 17 -9 17 -11 16 -28 -3 -10 -11 -38
-25 -61 -31 -38 -10 -46 -9 -63 8 -19 19 -19 19 -36 -1 -17 -20 -34 -27 -31
-13 2 14 -14 43 -21 38 -4 -2 -15 9 -24 25 -19 31 -47 31 -47 0 0 -10 -6 -20
-13 -23 -22 -8 -67 5 -67 19 0 18 -53 40 -58 25 -2 -5 -9 -8 -17 -5 -16 6 -25
-18 -27 -71 -1 -35 -2 -36 -15 -19 -8 11 -12 27 -9 37 2 10 -4 27 -15 38 -17
17 -25 18 -54 10 -21 -6 -37 -6 -41 0 -7 12 -71 12 -79 0 -11 -19 -66 -8 -94
19 -35 35 -82 46 -113 26 -30 -19 -110 -29 -119 -14 -4 6 -28 10 -53 10 -39
-1 -46 2 -46 18 0 10 7 23 15 28 19 10 9 43 -11 35 -8 -3 -14 -14 -14 -26 0
-11 -3 -17 -7 -14 -8 9 -32 -24 -33 -46 0 -17 -14 -18 -244 -13 -134 3 -255
10 -268 14 -12 5 -110 9 -217 10 -106 1 -197 5 -202 8 -5 3 -9 -56 -9 -139 l0
-144 77 -7 c42 -3 99 -7 127 -7 l51 -1 -40 -9 c-63 -14 -115 -17 -121 -8 -7
11 -65 11 -82 0 -9 -5 -12 -25 -10 -62 3 -51 5 -54 36 -63 17 -5 32 -13 32
-19 0 -5 12 -6 27 -3 14 4 29 3 32 -2 3 -6 33 -13 65 -17 45 -6 57 -5 51 4 -5
9 20 11 107 6 62 -3 296 -8 521 -11 405 -5 407 -5 407 16 0 18 6 20 79 20 44
0 81 -4 83 -10 2 -6 22 -11 45 -13 24 -1 43 -5 43 -9 0 -5 43 -8 96 -8 58 0
93 4 89 10 -3 5 5 16 19 25 20 14 29 14 65 3 22 -7 41 -17 41 -21 0 -5 -3 -6
-7 -4 -5 3 -17 1 -28 -4 -11 -4 730 -8 1648 -8 l1667 -1 0 804 0 803 -102 -3
c-93 -4 -108 -7 -151 -34 -27 -17 -57 -30 -68 -30 -11 0 -22 -7 -25 -15 -4 -8
-10 -12 -15 -9 -5 3 -9 -1 -9 -8 0 -9 -3 -10 -8 -2 -4 6 -18 15 -32 19 l-25 8
19 -24 c11 -13 1 -4 -23 19 -23 24 -44 57 -48 73 -3 16 -9 31 -13 34 -3 2 -22
34 -40 71 -19 36 -47 80 -62 96 -15 17 -28 33 -28 36 0 3 -12 19 -27 34 -25
26 -26 31 -14 50 12 19 11 24 -10 40 -53 40 -53 40 -33 54 37 26 40 32 36 68
-3 29 -12 42 -38 59 -19 12 -34 27 -34 34 0 16 -31 32 -50 25 -8 -2 -23 -12
-33 -21 -18 -15 -20 -14 -40 13 -12 17 -22 36 -23 44 -3 19 -35 52 -51 52 -7
0 -13 11 -13 24 0 16 -7 27 -19 31 -25 8 -49 104 -29 116 7 5 14 5 16 0 1 -4
22 -5 45 -1 72 11 167 3 187 -15 10 -9 24 -18 32 -19 7 -2 22 -6 33 -10 11 -5
31 -12 45 -17 14 -5 95 -9 180 -9 85 -1 173 -1 195 -2 22 -1 78 2 125 6 l85 8
25 -41 c14 -23 28 -41 32 -41 5 0 8 62 8 138 -1 116 -3 134 -14 120 -15 -20
-66 -25 -66 -7 0 8 -40 10 -142 5 -257 -11 -342 -16 -406 -27 -34 -5 -108 -7
-165 -3 -70 4 -115 3 -142 -6 -22 -7 -61 -15 -86 -19 -40 -6 -46 -5 -41 8 3 9
2 13 -3 9 -4 -4 -13 -2 -19 5 -39 41 -89 111 -121 172 -21 39 -49 83 -62 99
-13 16 -22 35 -19 42 3 7 0 17 -7 21 -14 9 -35 40 -85 128 -64 110 -82 146
-82 161 0 20 -43 82 -69 100 -12 9 -21 20 -21 26 0 6 -6 19 -14 27 -23 27 -86
151 -86 172 0 10 -4 19 -9 19 -15 0 -221 286 -221 307 0 4 -14 24 -30 43 -17
19 -33 44 -36 55 -4 11 -17 34 -29 50 -12 17 -53 82 -90 145 -38 63 -87 142
-110 175 -23 33 -57 94 -76 135 -40 90 -87 166 -123 199 -14 14 -26 31 -26 38
0 23 -89 203 -100 203 -6 0 -10 6 -10 14 0 8 -14 22 -32 30 -35 18 -48 20 -48
8z m804 -1535 c-19 -11 0 -37 27 -37 22 0 56 -47 43 -60 -17 -16 -59 -15 -97
3 -29 14 -37 23 -32 38 3 10 8 29 11 42 4 12 13 30 22 39 14 17 16 17 28 0 10
-14 10 -18 -2 -25z m576 -1042 c23 -8 62 -15 86 -15 40 0 44 -2 44 -24 0 -14
5 -28 10 -31 6 -4 8 -11 5 -16 -4 -5 6 -14 20 -19 19 -7 25 -15 21 -26 -4 -10
3 -26 19 -42 33 -32 32 -39 -7 -47 -33 -6 -76 -20 -113 -35 -11 -5 -31 -8 -45
-6 -14 1 -35 -4 -48 -11 -15 -9 -37 -12 -65 -8 -23 3 -59 9 -79 12 -21 3 -42
11 -49 19 -6 8 -17 14 -23 14 -6 0 -11 15 -11 33 0 21 -4 31 -13 29 -10 -2
-11 7 -5 35 8 44 8 70 -2 99 -9 29 27 38 80 19 22 -7 41 -9 43 -4 2 5 12 9 23
9 10 0 18 3 18 8 -5 27 27 30 91 7z m1123 -742 c-7 -2 -19 -2 -25 0 -7 3 -2 5
12 5 14 0 19 -2 13 -5z m-1037 -55 c4 -6 -1 -17 -11 -25 -22 -15 -55 -17 -55
-3 0 6 6 10 14 10 8 0 16 7 20 15 6 18 22 20 32 3z m-3576 -1099 c35 0 64 -5
76 -14 17 -12 4 -13 -106 -9 -118 4 -162 7 -185 14 -16 5 118 17 139 12 10 -2
44 -4 76 -3z m1403 -63 c9 -7 17 -19 17 -27 -1 -10 -4 -8 -11 4 -6 9 -14 15
-20 12 -12 -8 -31 4 -24 16 8 12 16 11 38 -5z m-1360 -193 c-13 -2 -33 -2 -45
0 -13 2 -3 4 22 4 25 0 35 -2 23 -4z m1054 -109 c-3 -3 -12 -4 -19 -1 -8 3 -5
6 6 6 11 1 17 -2 13 -5z m-377 -34 c0 -5 15 -14 33 -19 29 -8 25 -9 -31 -10
-40 -1 -61 3 -57 9 3 6 13 10 21 10 8 0 14 5 14 10 0 6 5 10 10 10 6 0 10 -4
10 -10z m978 -9 c1 -1 2 -5 2 -9 0 -10 -216 -16 -232 -5 -20 13 185 25 230 14z"/>
<path d="M2428 4903 c7 -3 16 -2 19 1 4 3 -2 6 -13 5 -11 0 -14 -3 -6 -6z"/>
<path d="M1968 4758 c-40 -35 -53 -66 -37 -94 11 -22 28 -28 67 -27 6 1 12 -3
12 -9 0 -5 5 -6 11 -2 6 3 15 1 19 -5 4 -8 11 0 19 21 7 18 20 48 29 66 31 64
28 69 -36 71 -46 1 -62 -3 -84 -21z"/>
<path d="M3360 4641 c-42 -12 -31 -36 19 -39 50 -4 71 9 51 33 -13 16 -29 17
-70 6z"/>
<path d="M2312 4608 c-17 -17 -15 -38 3 -38 13 0 20 -19 16 -44 -4 -22 24 -24
36 -3 7 12 12 16 13 10 0 -22 20 -14 20 7 0 21 -24 28 -35 10 -12 -19 -25 -10
-25 18 0 38 -13 55 -28 40z"/>
<path d="M2238 4552 c-7 -11 -20 -21 -28 -25 -13 -4 -12 -6 1 -6 9 -1 24 -12
33 -26 9 -14 22 -22 30 -19 19 7 27 54 10 54 -13 0 -18 12 -15 33 2 14 -18 7
-31 -11z"/>
<path d="M2327 4459 c-9 -6 -17 -14 -17 -19 0 -16 30 -11 37 5 8 21 1 25 -20
14z"/>
<path d="M2115 4358 c-16 -12 -34 -29 -39 -36 -6 -11 -10 -12 -16 -2 -4 7 -13
9 -19 6 -16 -10 -14 -26 4 -26 8 0 21 -13 30 -30 9 -16 22 -30 29 -30 8 0 17
-7 20 -16 5 -14 8 -14 23 2 10 9 18 22 19 28 0 6 2 16 2 23 1 6 11 15 22 18
27 9 25 31 -6 60 -32 30 -31 30 -69 3z"/>
<path d="M3854 4240 c-11 -4 -33 -22 -47 -40 -51 -61 -23 -162 52 -188 37 -13
86 11 119 58 27 41 28 69 2 120 -29 56 -70 73 -126 50z"/>
<path d="M5026 4243 c6 -4 14 -15 17 -23 5 -11 6 -9 4 4 -1 11 -9 21 -17 23
-10 3 -11 2 -4 -4z"/>
<path d="M5106 4241 c-4 -7 -5 -15 -2 -18 9 -9 19 4 14 18 -4 11 -6 11 -12 0z"/>
<path d="M4970 4220 c0 -5 14 -10 30 -10 17 0 30 5 30 10 0 6 -13 10 -30 10
-16 0 -30 -4 -30 -10z"/>
<path d="M4960 4181 c0 -12 36 -20 60 -14 34 9 22 23 -20 23 -22 0 -40 -4 -40
-9z"/>
<path d="M2036 4123 c-22 -7 -46 -19 -53 -25 -14 -11 -18 -66 -5 -83 8 -12 47
-31 80 -40 12 -4 22 -11 22 -16 0 -11 49 -33 68 -30 6 1 12 -4 12 -11 0 -7 12
-27 28 -43 22 -24 27 -39 28 -83 2 -62 6 -69 39 -54 39 18 64 79 62 151 -1 33
-2 61 -3 61 0 0 -14 -11 -30 -25 -33 -28 -70 -34 -60 -10 3 8 1 15 -4 15 -6 0
-10 6 -10 13 0 7 -13 23 -30 35 -33 24 -40 52 -14 52 14 0 15 7 10 42 -4 23
-12 48 -18 55 -13 17 -71 15 -122 -4z"/>
<path d="M2276 4095 c-9 -9 -17 -26 -18 -38 -3 -47 -9 -70 -25 -100 -6 -10 50
15 58 27 4 5 11 6 17 2 5 -3 18 6 27 20 16 25 16 28 -1 62 -23 42 -36 48 -58
27z"/>
<path d="M4955 3899 c-46 -21 -73 -38 -93 -57 -23 -21 -140 -74 -227 -103 -62
-20 -84 -33 -97 -55 -23 -38 -23 -54 2 -54 11 0 20 -7 20 -15 0 -8 6 -15 13
-15 7 0 40 -13 72 -30 50 -25 70 -30 132 -30 83 0 103 8 143 54 19 21 39 32
60 34 18 1 54 19 86 43 l54 40 0 89 0 90 -40 0 c-29 0 -40 4 -40 15 0 20 -36
18 -85 -6z"/>
<path d="M1846 3881 c-4 -7 -14 -10 -21 -7 -21 8 -25 -64 -6 -99 23 -41 56
-41 57 1 1 17 8 42 18 55 22 32 20 39 -8 39 -13 0 -26 5 -28 12 -3 9 -6 9 -12
-1z"/>
<path d="M1650 3785 c0 -18 19 -40 26 -32 4 4 0 15 -9 24 -9 10 -17 13 -17 8z"/>
<path d="M1630 3726 c0 -15 18 -31 26 -23 7 7 -7 37 -17 37 -5 0 -9 -6 -9 -14z"/>
<path d="M3047 3726 c-14 -11 -15 -15 -5 -20 7 -3 1 -3 -14 0 -24 5 -28 3 -27
-17 1 -41 24 -92 45 -98 13 -5 28 2 46 20 l27 26 -29 34 c-35 40 -39 63 -10
54 11 -4 20 -2 20 4 0 15 -31 13 -53 -3z"/>
<path d="M2534 3699 c-34 -34 -73 -40 -163 -25 -37 6 -45 4 -57 -13 -9 -13
-21 -18 -31 -14 -10 4 -24 -3 -37 -19 l-21 -25 -93 44 c-89 42 -93 43 -122 28
-32 -17 -41 -15 -79 19 l-24 21 5 -22 c3 -12 1 -24 -6 -27 -16 -7 82 -86 108
-86 9 0 16 -8 16 -18 0 -10 5 -23 12 -30 7 -7 17 -27 23 -44 6 -18 17 -32 24
-30 6 1 19 -5 28 -14 10 -10 24 -13 37 -9 33 10 126 13 132 3 3 -4 16 -8 30
-8 15 0 24 -6 24 -15 0 -8 3 -15 8 -16 4 0 17 -2 29 -3 12 -1 20 1 17 6 -9 15
26 73 56 93 17 11 36 35 42 53 7 17 15 32 19 32 11 0 23 41 20 64 -2 11 7 27
19 36 12 9 21 24 19 34 -3 14 -10 11 -35 -15z"/>
<path d="M1851 3711 c-21 -13 -5 -41 24 -41 28 0 30 7 11 33 -15 20 -16 20
-35 8z"/>
<path d="M1675 3684 c-20 -15 -20 -16 4 -12 14 2 26 9 29 16 5 16 -9 15 -33
-4z"/>
<path d="M2811 3639 c-14 -11 -31 -17 -42 -14 -11 4 -19 2 -19 -4 0 -6 12 -14
27 -17 15 -4 36 -15 46 -25 22 -20 61 -29 78 -18 19 11 -2 65 -23 61 -9 -1
-18 7 -21 18 -6 25 -15 25 -46 -1z"/>
<path d="M2947 3627 c-8 -7 -17 -19 -20 -28 -7 -21 23 -20 40 1 7 8 13 11 13
5 0 -10 20 15 20 25 0 11 -38 8 -53 -3z"/>
<path d="M2636 3586 c-5 -28 -4 -43 6 -53 12 -11 13 -8 10 24 -6 65 -8 69 -16
29z"/>
<path d="M3095 3564 c4 -11 13 -34 19 -51 23 -61 33 -52 20 16 -4 17 -16 37
-27 43 -17 9 -19 8 -12 -8z"/>
<path d="M2556 3536 c-14 -52 5 -62 42 -23 29 31 28 42 -7 43 -22 1 -31 -4
-35 -20z"/>
<path d="M1592 3530 c-16 -27 -15 -50 4 -71 8 -9 17 -37 19 -62 1 -25 6 -50 9
-56 4 -6 1 -11 -8 -11 -8 0 -17 -4 -20 -9 -6 -9 21 -99 36 -118 13 -17 38 -5
49 24 8 22 14 24 42 19 27 -5 40 0 79 32 44 35 62 65 36 59 -14 -2 -11 76 3
81 16 6 -1 22 -24 23 -18 0 -19 2 -5 7 10 4 14 12 10 18 -9 14 -45 27 -37 14
11 -18 -11 -11 -29 9 -9 10 -25 17 -34 14 -9 -2 -39 7 -65 21 -26 15 -49 26
-50 26 -1 0 -8 -9 -15 -20z m212 -136 c3 -8 2 -12 -4 -9 -6 3 -10 10 -10 16 0
14 7 11 14 -7z"/>
<path d="M2647 3503 c-4 -3 5 -17 19 -30 19 -17 24 -30 20 -46 -3 -12 -6 -32
-6 -45 0 -19 -3 -21 -19 -12 -42 22 -53 14 -46 -32 8 -48 8 -48 27 -53 40 -10
58 -19 58 -30 0 -15 34 -24 70 -20 14 2 25 4 25 5 0 8 45 7 50 0 4 -6 22 -17
41 -25 19 -8 34 -21 34 -29 0 -10 9 -16 22 -16 19 0 20 2 6 18 -8 9 -21 32
-29 50 -11 25 -20 32 -44 33 -16 1 -34 1 -39 0 -5 -1 -4 5 3 13 8 10 10 23 5
33 -4 10 -8 20 -9 23 -16 45 -104 140 -131 140 -8 0 -17 7 -20 15 -6 15 -26
20 -37 8z"/>
<path d="M1086 3400 c-30 -34 -35 -44 -26 -60 20 -38 79 -23 131 33 44 49 39
67 -20 67 -44 0 -52 -4 -85 -40z"/>
<path d="M2450 3360 c0 -5 5 -10 11 -10 5 0 7 5 4 10 -3 6 -8 10 -11 10 -2 0
-4 -4 -4 -10z"/>
<path d="M2487 3344 c-3 -3 -3 -12 0 -20 4 -11 9 -12 19 -3 8 6 14 15 14 20 0
10 -24 12 -33 3z"/>
<path d="M2560 3330 c0 -5 5 -10 11 -10 5 0 7 5 4 10 -3 6 -8 10 -11 10 -2 0
-4 -4 -4 -10z"/>
<path d="M3047 3286 c-11 -8 -33 -13 -52 -10 -19 2 -37 -1 -40 -7 -11 -17 5
-79 21 -86 16 -6 109 26 100 34 -10 10 15 44 27 36 7 -4 7 0 -2 10 -7 9 -10
17 -5 17 5 0 2 5 -6 10 -19 12 -21 12 -43 -4z"/>
<path d="M2500 3280 c0 -5 5 -10 10 -10 6 0 10 5 10 10 0 6 -4 10 -10 10 -5 0
-10 -4 -10 -10z"/>
<path d="M1826 3259 c-13 -13 -14 -18 -4 -21 19 -7 68 12 68 25 0 18 -44 14
-64 -4z"/>
<path d="M1423 3245 c-9 -24 0 -25 27 -5 l25 20 -23 0 c-12 0 -25 -7 -29 -15z"/>
<path d="M4560 3185 c0 -8 2 -15 4 -15 2 0 6 7 10 15 3 8 1 15 -4 15 -6 0 -10
-7 -10 -15z"/>
<path d="M2571 3093 c-17 -19 -25 -22 -31 -13 -5 9 -9 9 -14 1 -4 -6 -16 -11
-27 -11 -16 0 -18 -6 -15 -42 3 -39 6 -43 32 -46 23 -2 32 -11 46 -42 22 -53
47 -53 77 0 12 22 26 40 31 40 10 0 19 59 9 65 -3 3 -9 -4 -12 -15 -6 -24 -52
-28 -61 -5 -9 23 4 45 27 45 18 0 18 2 -7 25 -15 14 -28 25 -29 24 -1 -1 -13
-13 -26 -26z"/>
<path d="M1436 3075 c-7 -19 3 -47 15 -39 12 7 12 54 0 54 -5 0 -11 -7 -15
-15z"/>
<path d="M1870 3059 c-21 -16 -49 -20 -165 -25 -77 -3 -144 -9 -148 -13 -21
-20 48 -84 91 -83 15 0 33 -5 41 -12 12 -9 13 -6 7 17 -5 20 -3 27 8 27 8 0
18 -5 21 -10 5 -8 11 -7 20 0 16 14 59 -5 50 -21 -4 -5 -3 -9 2 -8 23 4 35 -2
30 -16 -4 -8 -2 -17 4 -21 6 -3 14 -16 19 -28 6 -15 9 -16 9 -5 1 9 -6 29 -14
45 -14 27 -13 28 18 43 18 8 35 14 39 13 4 -1 10 7 13 18 4 11 11 20 16 20 5
0 7 10 5 23 -3 12 -5 25 -5 29 -2 21 -37 25 -61 7z m25 -39 c3 -6 -1 -7 -9 -4
-18 7 -21 14 -7 14 6 0 13 -4 16 -10z"/>
<path d="M3442 3068 c-18 -18 -14 -38 8 -38 15 0 20 7 20 25 0 27 -9 32 -28
13z"/>
<path d="M1260 2986 c0 -2 7 -6 15 -10 8 -3 15 -1 15 4 0 6 -7 10 -15 10 -8 0
-15 -2 -15 -4z"/>
<path d="M2041 2971 c-10 -19 -7 -23 41 -59 23 -18 33 2 11 23 -16 16 -16 18
0 30 9 6 14 15 10 18 -13 14 -53 6 -62 -12z"/>
<path d="M3011 2929 c-30 -29 -46 -70 -29 -80 7 -4 18 -3 25 3 7 6 13 7 13 2
0 -4 6 -2 13 4 12 13 19 92 7 92 -3 0 -16 -9 -29 -21z"/>
<path d="M3087 2932 c-28 -3 -29 -5 -23 -50 3 -26 7 -55 8 -64 3 -21 0 -21 33
-8 20 8 25 15 20 30 -4 12 -1 27 5 35 20 24 -9 61 -43 57z"/>
<path d="M1607 2915 c-4 -8 -2 -17 3 -20 6 -4 10 3 10 14 0 25 -6 27 -13 6z"/>
<path d="M1330 2905 c-7 -9 -26 -23 -41 -30 -29 -15 -42 -45 -28 -66 7 -12 12
-12 29 -1 18 11 25 10 50 -8 20 -14 27 -26 23 -37 -4 -11 -3 -14 5 -9 7 4 23
-1 37 -11 18 -13 24 -27 25 -55 0 -20 -5 -40 -10 -43 -6 -4 -8 -11 -4 -16 8
-13 76 0 90 17 6 8 15 14 19 14 4 0 24 13 44 28 20 16 44 32 54 35 23 9 22 43
-4 60 -13 9 -16 17 -10 22 16 9 13 25 -5 25 -9 0 -14 6 -12 12 10 29 -28 47
-117 58 -50 6 -99 13 -111 16 -12 3 -26 -1 -34 -11z"/>
<path d="M2955 2890 c-3 -5 -1 -10 4 -10 6 0 11 5 11 10 0 6 -2 10 -4 10 -3 0
-8 -4 -11 -10z"/>
<path d="M1855 2810 c-3 -5 1 -10 10 -10 9 0 13 5 10 10 -3 6 -8 10 -10 10 -2
0 -7 -4 -10 -10z"/>
<path d="M1890 2719 c0 -7 8 -18 18 -25 16 -13 16 -13 0 -14 -10 0 -18 5 -18
10 0 25 -20 6 -35 -33 -17 -46 -11 -83 23 -120 15 -17 15 -22 1 -62 -15 -41
-15 -46 0 -59 26 -24 53 3 49 49 -2 29 1 38 14 40 9 2 22 -3 29 -11 6 -8 15
-11 20 -8 19 11 8 41 -26 71 -19 17 -35 36 -35 43 0 6 -4 9 -9 6 -11 -7 -24
25 -14 35 4 4 24 11 43 16 l35 9 -32 32 c-31 32 -63 42 -63 21z"/>
<path d="M2775 2678 c-11 -6 -22 -14 -25 -18 -10 -13 -38 -18 -48 -8 -15 15
-92 -32 -92 -57 0 -12 -6 -27 -12 -34 -11 -11 -6 -13 25 -8 36 6 37 5 38 -26
2 -49 -1 -61 -18 -74 -8 -6 -12 -16 -8 -22 3 -6 1 -11 -5 -11 -24 0 -67 -39
-65 -59 1 -11 3 -22 6 -25 2 -2 38 2 79 9 48 8 79 10 87 4 6 -6 22 -7 36 -4
20 5 25 3 24 -12 -2 -14 6 -19 36 -21 47 -4 71 12 57 39 -6 10 -10 22 -9 26 3
19 -2 34 -10 29 -4 -3 -6 7 -4 22 4 21 2 24 -6 12 -17 -24 -13 -8 9 34 10 22
17 43 14 48 -3 5 -2 7 3 6 29 -10 -3 75 -48 126 -34 40 -36 40 -64 24z m-85
-70 c0 -5 -4 -8 -10 -8 -5 0 -10 10 -10 23 0 18 2 19 10 7 5 -8 10 -18 10 -22z"/>
<path d="M2997 2661 c-20 -35 -21 -41 -4 -41 16 0 59 55 50 64 -13 13 -29 5
-46 -23z"/>
<path d="M3480 2659 c0 -6 -8 -8 -18 -5 -13 4 -28 -7 -55 -38 -36 -44 -46 -66
-28 -66 5 0 11 6 14 14 3 8 20 16 38 18 26 2 33 8 34 27 1 13 9 28 18 33 19
10 23 28 7 28 -5 0 -10 -5 -10 -11z"/>
<path d="M1065 2577 c-29 -16 -41 -29 -43 -50 -3 -21 1 -27 16 -27 10 0 24
-10 30 -22 8 -18 11 -19 11 -5 1 9 7 17 15 17 37 0 63 91 30 104 -9 3 -16 6
-17 5 -1 0 -20 -10 -42 -22z"/>
<path d="M1159 2557 c0 -1 -2 -14 -3 -29 -1 -15 -12 -38 -24 -51 -12 -13 -22
-27 -22 -31 0 -4 -7 -14 -15 -23 -20 -20 -11 -31 20 -26 20 4 28 -1 42 -26 21
-35 38 -39 53 -12 19 36 13 52 -15 41 -31 -12 -38 -1 -24 39 6 18 9 35 5 38
-3 3 4 11 16 17 32 16 31 29 -2 48 -17 9 -30 16 -31 15z"/>
<path d="M3569 2527 l-24 -9 33 -16 c39 -19 62 -5 34 19 -14 12 -25 13 -43 6z"/>
<path d="M2143 2496 c-13 -6 -23 -14 -23 -17 0 -13 -48 -57 -69 -64 -12 -3
-19 -10 -16 -15 3 -5 1 -11 -5 -15 -14 -9 -13 -28 2 -23 7 3 24 -1 37 -8 14
-7 28 -11 33 -8 4 3 8 1 8 -4 0 -5 16 -4 37 3 31 11 39 19 45 47 4 18 5 40 2
49 -2 9 2 19 11 23 20 7 19 32 -1 40 -20 8 -34 6 -61 -8z"/>
<path d="M1530 2465 c-8 -10 -14 -58 -16 -138 -3 -109 -1 -127 19 -167 21 -43
24 -45 64 -45 24 0 43 3 43 8 0 4 -4 7 -9 7 -30 0 -16 98 18 134 28 30 92 50
104 33 9 -12 7 -4 -17 58 -6 17 -22 39 -36 50 -14 11 -32 27 -41 36 -11 11
-20 13 -31 5 -11 -7 -23 -4 -43 12 -33 26 -39 27 -55 7z"/>
<path d="M2468 2379 c-25 -14 -34 -73 -14 -101 9 -12 16 -18 16 -13 0 5 7 0
15 -11 12 -16 14 -16 15 -3 0 9 -7 35 -15 58 -8 22 -11 41 -7 41 4 0 8 9 9 20
1 11 1 20 0 20 -1 0 -10 -5 -19 -11z"/>
<path d="M1924 2369 c-17 -21 -23 -58 -12 -65 17 -11 30 12 26 46 -2 27 -5 30
-14 19z"/>
<path d="M1975 2337 c-4 -18 -7 -42 -6 -54 3 -24 -8 -30 -25 -13 -7 7 -10 4
-10 -12 1 -13 6 -26 11 -30 7 -5 6 -14 -2 -27 -20 -32 2 -33 25 -2 13 18 19
37 15 50 -3 12 -1 21 6 21 6 0 11 -5 11 -12 0 -8 3 -8 9 -2 13 13 1 102 -14
108 -8 3 -16 -8 -20 -27z"/>
<path d="M3031 2314 c-25 -42 -26 -50 -6 -58 11 -4 15 2 15 28 0 26 5 35 21
39 12 3 18 10 14 16 -11 19 -22 12 -44 -25z"/>
<path d="M1295 2290 c-22 -24 -13 -70 14 -70 20 0 32 37 24 71 -7 24 -15 24
-38 -1z"/>
<path d="M2842 2289 c2 -6 8 -10 13 -10 5 0 11 4 13 10 2 6 -4 11 -13 11 -9 0
-15 -5 -13 -11z"/>
<path d="M1237 2185 c-41 -39 -33 -66 24 -80 22 -5 27 -2 33 17 14 52 3 88
-27 88 -1 0 -15 -11 -30 -25z"/>
<path d="M2453 2187 c-12 -16 -20 -34 -17 -41 3 -7 -5 -32 -17 -55 -12 -23
-23 -57 -26 -76 -4 -32 -2 -35 20 -35 16 0 26 -7 30 -19 6 -23 54 -34 62 -13
7 19 20 6 20 -21 0 -15 6 -22 20 -22 17 0 20 5 16 40 -3 35 -1 38 13 26 9 -7
14 -16 12 -20 -3 -4 -1 -13 4 -21 6 -10 10 -6 15 16 4 16 13 47 21 69 17 50
17 50 -2 69 -10 10 -24 14 -40 10 -17 -4 -26 -1 -30 11 -4 9 -13 14 -20 11 -8
-3 -14 0 -14 7 0 7 -9 18 -19 24 -11 7 -21 25 -23 40 l-3 28 -22 -28z m101
-102 c11 -8 15 -15 9 -15 -19 0 -43 12 -43 21 0 13 12 11 34 -6z m-71 -55 c-3
-11 -7 -20 -9 -20 -2 0 -8 9 -14 20 -9 17 -8 20 9 20 14 0 18 -5 14 -20z m-43
6 c0 -3 -4 -8 -10 -11 -5 -3 -10 -1 -10 4 0 6 5 11 10 11 6 0 10 -2 10 -4z
m55 -54 c0 -18 -20 -15 -23 4 -3 10 1 15 10 12 7 -3 13 -10 13 -16z"/>
<path d="M2250 2189 c0 -4 -9 -10 -19 -14 -17 -5 -19 -15 -18 -73 l2 -67 -34
-1 c-20 0 -37 -6 -39 -14 -4 -10 3 -12 25 -7 16 3 49 -1 73 -9 35 -12 45 -13
51 -2 5 7 4 14 -1 16 -18 6 -11 22 9 22 25 0 34 15 33 53 0 17 4 39 9 49 8 15
6 18 -17 18 -18 0 -25 4 -21 14 4 10 -4 15 -24 18 -16 3 -29 1 -29 -3z m24
-51 c6 -24 -19 -53 -35 -42 -11 6 -12 48 -2 57 13 14 31 6 37 -15z"/>
<path d="M1012 2178 c-18 -18 -15 -45 6 -50 15 -4 17 0 14 29 -5 38 -4 37 -20
21z"/>
<path d="M2895 2167 c11 -41 -9 -57 -71 -57 -29 0 -56 -5 -59 -10 -4 -6 -24
-19 -46 -30 -33 -17 -39 -18 -39 -5 0 22 -17 18 -23 -5 -4 -16 1 -22 21 -26
15 -4 44 -24 64 -46 21 -22 42 -37 48 -33 5 3 19 1 31 -5 29 -16 34 -7 13 25
-18 27 -18 28 11 52 22 20 35 23 61 19 18 -4 35 -2 38 3 11 17 -12 104 -34
125 l-21 21 6 -28z"/>
<path d="M1736 2140 c-4 -19 -10 -29 -13 -22 -7 18 -41 15 -45 -5 -2 -10 0
-28 5 -40 l10 -22 16 21 c17 20 17 20 34 -13 l17 -34 0 28 c0 17 9 36 22 46
12 11 18 23 14 30 -6 9 -11 9 -21 1 -10 -8 -15 -4 -22 17 l-10 28 -7 -35z"/>
<path d="M2772 2162 c-31 -5 -88 -58 -69 -65 15 -6 41 12 50 33 3 9 6 10 6 3
2 -21 29 -15 36 8 8 25 7 26 -23 21z"/>
<path d="M3263 2131 c3 -13 -1 -21 -12 -24 -13 -4 -13 -5 2 -6 10 0 17 -7 14
-13 -2 -7 -13 -12 -25 -11 -19 2 -39 -24 -27 -35 3 -4 35 -8 70 -10 39 -3 65
-9 65 -16 0 -6 14 4 30 23 31 34 38 47 21 36 -6 -3 -9 6 -8 21 3 39 -24 53
-52 25 -22 -22 -41 -21 -41 4 0 7 -7 16 -16 19 -24 9 -27 8 -21 -13z"/>
<path d="M966 2055 c-10 -23 -22 -35 -35 -35 -23 0 -66 -61 -49 -71 6 -4 7
-12 4 -18 -10 -16 -2 -14 48 14 25 14 51 22 59 19 8 -3 27 6 42 20 14 14 33
22 41 19 20 -7 17 4 -6 27 -18 18 -20 18 -20 3 0 -16 -2 -16 -15 -2 -9 9 -17
25 -18 37 -2 35 -35 27 -51 -13z"/>
<path d="M5096 2034 c-10 -25 -6 -76 9 -114 13 -34 13 -33 14 48 1 76 -9 104
-23 66z"/>
<path d="M1323 2024 c-9 -24 5 -46 29 -42 32 4 33 31 3 45 -21 9 -27 9 -32 -3z"/>
<path d="M3478 1992 c-7 -10 -48 -35 -90 -56 -80 -38 -100 -65 -50 -67 72 -4
158 4 164 16 4 7 18 15 31 19 20 5 22 10 19 48 -3 24 -10 46 -16 50 -19 13
-44 9 -58 -10z"/>
<path d="M3645 2000 c-3 -5 1 -10 10 -10 9 0 13 5 10 10 -3 6 -8 10 -10 10 -2
0 -7 -4 -10 -10z"/>
<path d="M1690 1985 c-6 -8 -10 -20 -8 -27 7 -19 -18 -81 -33 -84 -60 -10
-117 -58 -84 -70 19 -8 19 -28 0 -44 -8 -7 -14 -18 -13 -24 4 -20 -12 -66 -23
-66 -17 0 14 -26 39 -32 29 -8 81 12 88 34 3 9 14 20 25 23 26 9 58 57 41 63
-18 6 -14 20 8 27 12 4 20 15 20 29 0 12 6 28 13 35 10 10 9 15 -4 24 -11 9
-14 20 -8 38 4 19 1 36 -13 58 -22 35 -30 38 -48 16z"/>
<path d="M2065 1960 c-10 -11 -31 -20 -46 -20 -16 0 -44 -8 -64 -17 -31 -15
-35 -21 -30 -41 10 -39 45 -68 45 -37 0 18 1 18 34 5 21 -8 27 -6 37 12 8 14
8 18 0 14 -6 -4 -11 -2 -11 3 0 6 5 11 10 11 16 0 59 53 60 73 0 23 -13 22
-35 -3z"/>
<path d="M1274 1885 c-4 -10 -20 -15 -43 -15 -31 0 -40 -5 -56 -32 -11 -18
-19 -36 -17 -40 1 -5 -7 -8 -17 -8 -11 0 -23 -4 -26 -10 -3 -5 -25 -14 -48
-21 -23 -6 -49 -17 -58 -25 -9 -8 -32 -13 -55 -11 -37 2 -39 1 -39 -28 0 -28
3 -31 50 -40 40 -9 51 -15 53 -33 l3 -22 29 22 28 21 51 -32 c59 -36 61 -36
61 -16 0 8 -6 15 -12 15 -10 0 -10 2 -1 8 6 4 15 20 19 36 4 16 15 31 25 33
13 4 21 18 25 44 4 21 17 50 30 64 12 13 18 27 13 30 -14 10 -11 37 7 50 16
11 16 12 0 18 -10 4 -19 1 -22 -8z"/>
<path d="M3133 1886 c-17 -6 -40 -20 -51 -29 -15 -14 -21 -15 -25 -5 -3 10 -9
8 -26 -6 -11 -11 -21 -24 -21 -29 0 -14 -32 -36 -53 -37 -23 0 -33 -26 -17
-45 16 -19 30 -19 30 -1 0 15 18 31 26 23 2 -2 0 -16 -5 -30 -9 -24 -8 -27 16
-33 19 -5 28 -3 31 6 3 8 16 24 28 37 13 13 24 28 24 33 0 5 5 12 12 16 7 5 9
2 6 -8 -4 -10 0 -15 10 -15 52 0 72 -5 86 -19 9 -8 16 -11 16 -6 0 11 56 39
101 52 24 7 33 5 49 -12 11 -12 23 -18 27 -15 3 4 -4 17 -16 28 -19 18 -30 20
-78 14 -44 -5 -58 -3 -74 11 -10 9 -16 21 -13 25 6 11 -28 59 -41 57 -5 0 -24
-6 -42 -12z"/>
<path d="M3552 1843 c3 -43 1 -48 -27 -63 -16 -9 -30 -22 -29 -28 4 -41 4 -42
29 -36 20 5 27 1 36 -20 21 -44 76 -30 169 44 l25 20 -22 6 c-14 4 -24 17 -29
37 -10 47 -27 58 -73 51 -33 -5 -41 -4 -41 9 0 13 -19 27 -37 27 -3 0 -3 -21
-1 -47z"/>
<path d="M660 1865 c-33 -40 39 -81 87 -49 15 9 22 21 19 31 -3 8 -6 19 -6 24
0 15 -86 10 -100 -6z"/>
<path d="M1431 1864 c0 -11 3 -14 6 -6 3 7 2 16 -1 19 -3 4 -6 -2 -5 -13z"/>
<path d="M4181 1824 c0 -11 3 -14 6 -6 3 7 2 16 -1 19 -3 4 -6 -2 -5 -13z"/>
<path d="M3500 1820 c0 -5 4 -10 9 -10 6 0 13 5 16 10 3 6 -1 10 -9 10 -9 0
-16 -4 -16 -10z"/>
<path d="M1446 1778 c-4 -24 -9 -53 -13 -66 -9 -37 24 -16 37 24 12 36 7 84
-9 84 -5 0 -11 -19 -15 -42z"/>
<path d="M2352 1763 c-7 -3 -19 -18 -27 -34 -24 -46 -57 -48 -99 -3 l-35 37
-43 -20 c-52 -25 -91 -63 -65 -63 10 0 17 -5 17 -11 0 -6 -6 -7 -12 -2 -7 4
-5 -5 5 -20 9 -14 17 -33 17 -40 0 -8 11 -22 25 -31 14 -9 25 -25 25 -36 0
-26 7 -29 84 -34 53 -3 73 -9 92 -27 20 -19 24 -20 24 -6 0 9 5 17 11 17 5 0
7 5 4 10 -10 16 11 12 25 -5 7 -8 18 -15 26 -15 7 0 17 -6 21 -13 4 -7 22 -23
39 -35 18 -12 39 -40 48 -62 9 -22 21 -40 27 -40 7 0 20 -10 30 -21 18 -21 19
-21 25 -3 3 11 12 32 19 48 16 35 10 57 -13 48 -14 -5 -15 -3 -4 10 24 30 -15
71 -44 47 -10 -8 -14 -8 -14 0 0 24 -19 51 -37 51 -20 0 -32 23 -22 42 10 19
39 25 39 7 0 -5 4 -8 9 -4 6 3 14 -2 19 -11 10 -19 32 -11 32 11 0 8 -7 18
-16 23 -11 6 -14 14 -9 22 6 10 11 9 22 -5 9 -14 13 -15 13 -4 0 12 2 12 10
-1 8 -12 10 -12 16 3 6 17 -22 96 -35 98 -3 0 -35 2 -71 3 -73 3 -106 19 -115
53 -5 22 -31 29 -63 16z m-56 -250 c-10 -10 -19 5 -10 18 6 11 8 11 12 0 2 -7
1 -15 -2 -18z m207 -48 c9 -23 -9 -26 -28 -5 -17 19 -17 20 2 20 12 0 23 -7
26 -15z"/>
<path d="M2697 1738 c7 -37 10 -44 19 -35 9 8 -6 67 -17 67 -4 0 -6 -15 -2
-32z"/>
<path d="M3900 1659 c0 -5 5 -7 10 -4 6 3 10 8 10 11 0 2 -4 4 -10 4 -5 0 -10
-5 -10 -11z"/>
<path d="M3620 1643 c0 -6 -9 -13 -20 -16 -12 -3 -20 -14 -20 -26 0 -12 2 -21
4 -21 10 0 48 62 42 67 -3 4 -6 2 -6 -4z"/>
<path d="M3236 1571 c-4 -7 -5 -15 -2 -18 9 -9 19 4 14 18 -4 11 -6 11 -12 0z"/>
<path d="M4262 1551 c-10 -29 0 -62 15 -48 9 10 11 77 1 77 -3 0 -11 -13 -16
-29z"/>
<path d="M845 1554 c-16 -8 -40 -13 -52 -11 -19 3 -23 0 -23 -19 0 -25 15 -33
23 -11 2 6 7 -2 11 -20 4 -17 14 -37 23 -44 13 -11 18 -10 29 6 8 10 14 25 14
32 0 8 7 25 16 38 14 22 12 45 -4 45 -4 0 -20 -7 -37 -16z"/>
<path d="M2505 1540 c-3 -6 1 -13 10 -16 19 -8 30 0 20 15 -8 14 -22 14 -30 1z"/>
<path d="M4339 1548 c-1 -5 -2 -11 -3 -15 -1 -5 -5 -14 -10 -21 -4 -7 -5 -16
-2 -19 3 -4 6 -1 6 6 0 8 7 11 15 7 8 -3 15 0 15 7 0 14 -19 45 -21 35z"/>
<path d="M1280 1480 c0 -5 5 -10 10 -10 6 0 10 5 10 10 0 6 -4 10 -10 10 -5 0
-10 -4 -10 -10z"/>
<path d="M1520 1455 c-21 -22 -22 -28 -11 -49 8 -14 10 -36 6 -55 -6 -27 -4
-31 14 -31 15 0 21 6 21 24 0 32 21 47 68 49 40 1 50 17 11 17 -26 0 -69 29
-69 46 0 24 -17 24 -40 -1z"/>
<path d="M3180 1469 c0 -4 9 -14 21 -22 17 -12 19 -22 14 -53 -12 -74 -15 -84
-31 -84 -12 0 -14 -7 -9 -30 4 -16 4 -43 0 -59 -8 -36 -58 -101 -91 -119 -13
-7 -24 -19 -24 -27 0 -8 -5 -15 -12 -15 -9 0 -9 -3 0 -12 17 -17 15 -38 -3
-38 -9 0 -19 10 -24 23 -5 12 -27 37 -50 55 -43 34 -57 33 -73 -9 -4 -9 -15
-19 -26 -21 -15 -4 -19 -2 -15 9 4 11 1 14 -8 11 -8 -3 -14 -11 -14 -19 -1 -8
-9 -31 -19 -52 -20 -41 -16 -58 9 -37 12 10 16 9 21 -4 8 -22 21 -20 29 4 4
11 11 17 17 14 5 -4 8 2 6 13 -3 19 17 53 31 53 3 0 6 -26 6 -58 -1 -48 -3
-57 -18 -54 -9 2 -17 -2 -17 -9 0 -8 -4 -9 -13 0 -18 14 -67 -7 -67 -29 0 -47
14 -89 31 -93 14 -4 20 4 30 42 8 32 19 50 35 58 32 15 40 2 47 -72 2 -35 16
-48 34 -33 21 17 15 -4 -9 -29 -26 -28 -20 -38 16 -22 26 12 36 51 16 64 -6 4
-7 13 -1 23 4 9 11 34 14 55 6 39 33 71 68 82 10 4 18 11 16 18 -1 6 7 13 17
15 15 3 18 0 13 -17 -3 -14 0 -21 10 -21 9 0 13 8 11 23 -1 12 5 33 15 47 9
13 17 21 17 18 0 -4 11 4 25 17 13 14 30 25 37 25 7 0 29 5 49 10 29 8 41 20
63 61 l26 51 -30 28 -30 28 20 35 21 35 -26 26 c-14 14 -25 22 -25 19 0 -4
-13 6 -29 21 -21 20 -30 24 -34 14 -3 -7 -6 -3 -6 9 -1 12 -7 25 -13 30 -18
11 -68 13 -68 2z m-65 -439 c3 -5 -1 -10 -9 -10 -9 0 -16 5 -16 10 0 6 4 10 9
10 6 0 13 -4 16 -10z"/>
<path d="M2745 1460 c-8 -12 20 -24 35 -15 6 3 8 11 5 16 -8 12 -32 12 -40 -1z"/>
<path d="M714 1432 c4 -7 1 -12 -8 -12 -9 0 -16 -6 -16 -14 0 -7 -8 -20 -17
-27 -15 -12 -16 -12 -10 4 10 27 -1 20 -49 -29 -24 -26 -44 -43 -44 -38 0 4
-18 -9 -40 -31 l-39 -38 20 -29 c11 -15 25 -26 30 -23 5 4 9 -3 9 -14 0 -29
12 -26 31 8 9 16 29 31 45 35 16 4 37 15 46 23 11 10 24 13 35 8 12 -5 14 -9
6 -12 -19 -7 -16 -21 10 -56 12 -18 30 -49 40 -71 17 -38 18 -38 60 -32 39 6
43 4 59 -24 22 -39 47 -39 54 0 4 16 10 28 14 25 4 -3 18 6 31 18 13 13 37 28
53 35 l29 13 -28 29 c-16 17 -53 37 -95 50 -66 21 -70 24 -93 74 -14 28 -28
59 -31 69 -8 26 -25 12 -18 -16 5 -21 4 -21 -14 -6 -10 9 -28 20 -40 23 -16 5
-20 12 -17 30 3 13 -1 27 -8 31 -8 5 -10 4 -5 -3z m-104 -143 c0 -5 -7 -9 -15
-9 -15 0 -20 12 -9 23 8 8 24 -1 24 -14z m260 -74 c0 -8 -4 -17 -10 -20 -6 -4
-10 5 -10 20 0 15 4 24 10 20 6 -3 10 -12 10 -20z"/>
<path d="M2080 1371 c0 -34 15 -49 24 -25 11 28 6 54 -9 54 -10 0 -15 -10 -15
-29z"/>
<path d="M1852 1363 c-36 -13 -43 -19 -38 -36 6 -23 -7 -51 -37 -84 -23 -26
-14 -29 26 -10 18 8 25 17 21 29 -2 9 0 19 6 23 5 3 10 15 10 26 0 10 6 19 13
19 15 0 57 33 57 44 0 8 -8 7 -58 -11z"/>
<path d="M67 1352 l-67 -15 0 -59 c0 -33 4 -57 8 -54 4 2 44 6 90 7 55 2 83 7
86 16 3 7 11 10 19 8 18 -7 60 87 43 97 -25 14 -115 14 -179 0z"/>
<path d="M2650 1354 c0 -8 5 -12 10 -9 6 3 10 10 10 16 0 5 -4 9 -10 9 -5 0
-10 -7 -10 -16z"/>
<path d="M1680 1350 c0 -5 -6 -10 -13 -10 -14 0 -47 -35 -47 -50 0 -6 14 -10
30 -10 20 0 30 5 30 15 0 8 6 15 13 15 18 0 49 34 40 43 -10 11 -53 8 -53 -3z"/>
<path d="M4216 1331 c-3 -5 1 -15 10 -22 13 -10 17 -10 25 2 5 8 9 17 9 22 0
10 -38 9 -44 -2z"/>
<path d="M3426 1283 c-4 -8 -6 -28 -6 -44 0 -32 29 -50 74 -47 22 2 27 28 5
28 -5 0 -9 5 -9 11 0 6 -13 23 -29 39 -23 21 -31 24 -35 13z"/>
<path d="M3717 1286 c-4 -10 -1 -13 9 -9 7 3 14 9 14 14 0 14 -17 10 -23 -5z"/>
<path d="M3670 1270 c0 -19 11 -26 23 -14 8 8 -3 34 -14 34 -5 0 -9 -9 -9 -20z"/>
<path d="M3370 1260 c0 -5 5 -10 11 -10 5 0 7 5 4 10 -3 6 -8 10 -11 10 -2 0
-4 -4 -4 -10z"/>
<path d="M2810 1245 c0 -8 -5 -14 -11 -12 -6 1 -16 -6 -22 -15 -9 -14 -8 -24
5 -45 21 -36 46 -39 82 -9 27 23 28 25 15 60 -11 30 -18 36 -41 36 -18 0 -28
-5 -28 -15z"/>
<path d="M1734 1183 c-3 -10 -10 -29 -15 -42 -5 -13 -8 -25 -7 -26 2 -1 13 -7
25 -14 19 -9 25 -7 42 15 25 32 25 33 5 62 -18 26 -43 29 -50 5z"/>
<path d="M4188 1169 c-10 -16 -25 -29 -37 -29 -11 0 -27 -3 -36 -6 -13 -6 -14
-9 -3 -16 9 -7 7 -8 -7 -4 -11 3 -27 1 -35 -4 -13 -9 -13 -12 3 -21 9 -5 17
-17 17 -25 0 -34 65 -68 81 -43 16 26 10 66 -13 82 -23 16 -23 16 -2 16 22 1
47 24 57 53 11 30 -8 28 -25 -3z m-32 -117 c-4 -3 -11 0 -16 8 -15 24 -11 33
6 15 9 -9 13 -19 10 -23z"/>
<path d="M3961 1104 c0 -11 3 -14 6 -6 3 7 2 16 -1 19 -3 4 -6 -2 -5 -13z"/>
<path d="M1266 1056 c-25 -26 -51 -60 -59 -76 -14 -28 -14 -29 12 -38 l26 -9
-37 -18 c-43 -21 -52 -38 -37 -66 15 -28 44 -20 44 13 1 25 27 53 108 113 23
17 26 25 21 55 -4 19 -13 43 -20 54 -12 17 -15 15 -58 -28z"/>
<path d="M1936 1066 c-23 -37 -23 -47 2 -57 14 -5 22 -5 22 2 0 6 5 7 10 4 6
-4 10 10 10 34 0 48 -19 55 -44 17z"/>
<path d="M3530 1061 c0 -5 6 -14 14 -20 12 -10 13 -8 9 8 -5 21 -23 30 -23 12z"/>
<path d="M3612 992 c-17 -36 -15 -47 4 -27 24 24 36 15 56 -45 10 -30 22 -58
27 -63 12 -12 24 47 19 93 -3 31 -8 36 -48 51 l-45 17 -13 -26z"/>
<path d="M2667 976 c-4 -10 -1 -13 9 -9 15 6 19 23 5 23 -5 0 -11 -7 -14 -14z"/>
<path d="M1100 959 c0 -5 5 -7 10 -4 6 3 10 8 10 11 0 2 -4 4 -10 4 -5 0 -10
-5 -10 -11z"/>
<path d="M1978 946 c-20 -15 -23 -26 -8 -26 5 0 14 9 20 20 12 23 11 24 -12 6z"/>
<path d="M1150 940 c-9 -6 -10 -10 -3 -10 6 0 15 5 18 10 8 12 4 12 -15 0z"/>
<path d="M3495 860 c-3 -5 1 -10 9 -10 9 0 16 5 16 10 0 6 -4 10 -9 10 -6 0
-13 -4 -16 -10z"/>
<path d="M2180 825 c0 -13 -13 -40 -30 -58 -16 -19 -30 -40 -30 -46 0 -18 65
-13 84 8 14 15 15 25 5 70 -11 53 -29 69 -29 26z"/>
<path d="M2917 838 c-2 -7 -1 -22 4 -33 8 -20 10 -17 14 23 2 23 -10 30 -18
10z"/>
<path d="M274 816 l-20 -23 28 -1 c21 0 28 4 28 18 0 29 -13 31 -36 6z"/>
<path d="M3410 830 c0 -5 5 -10 10 -10 6 0 10 5 10 10 0 6 -4 10 -10 10 -5 0
-10 -4 -10 -10z"/>
<path d="M2066 779 c-31 -24 -33 -40 -8 -62 26 -24 32 -21 32 14 0 17 5 39 10
50 14 25 -1 24 -34 -2z"/>
<path d="M308 748 c8 -10 -11 -13 -91 -14 -56 0 -128 -4 -159 -8 -55 -7 -58
-9 -58 -36 0 -19 6 -31 18 -34 20 -6 247 -8 337 -3 32 2 74 1 91 -3 18 -4 37
-3 42 2 5 5 45 -5 103 -26 52 -19 107 -38 122 -42 16 -4 25 -9 20 -13 -4 -3 3
-17 16 -31 19 -19 23 -21 17 -6 -5 14 -3 17 10 12 8 -3 21 -6 27 -6 7 0 6 -4
-3 -10 -12 -8 -10 -10 10 -11 14 -1 33 0 43 1 10 1 25 -4 33 -11 22 -18 27 -5
14 35 -7 23 -19 38 -34 42 -12 3 -27 18 -33 33 -10 28 -12 28 -74 25 -68 -5
-109 9 -109 35 0 12 -3 12 -12 3 -16 -16 -28 -15 -28 3 0 8 -7 15 -15 15 -8 0
-15 -4 -15 -10 0 -5 -15 -7 -32 -4 -18 3 -49 7 -68 9 -42 4 -97 24 -133 48
-31 20 -55 23 -39 5z"/>
<path d="M580 743 c0 -18 54 -43 79 -36 35 9 6 34 -31 26 -20 -4 -33 -1 -39 8
-6 10 -9 10 -9 2z"/>
<path d="M3950 629 c0 -5 5 -7 10 -4 6 3 10 8 10 11 0 2 -4 4 -10 4 -5 0 -10
-5 -10 -11z"/>
<path d="M298 553 c12 -2 30 -2 40 0 9 3 -1 5 -23 4 -22 0 -30 -2 -17 -4z"/>
<path d="M578 553 c6 -2 18 -2 25 0 6 3 1 5 -13 5 -14 0 -19 -2 -12 -5z"/>
<path d="M2210 500 c0 -11 42 -31 49 -24 2 2 -2 10 -9 19 -14 17 -40 20 -40 5z"/>
</g>
</svg>
